<?xml version="1.0" encoding="UTF-8" standalone="no"?>
<!-- Created with Inkscape (http://www.inkscape.org/) -->

<svg
   width="1024"
   height="1024"
   viewBox="0 0 270.93333 270.93333"
   version="1.1"
   id="svg1"
   xml:space="preserve"
   inkscape:version="1.3.2 (091e20e, 2023-11-25, custom)"
   sodipodi:docname="logo.svg"
   inkscape:export-filename="logo.png"
   inkscape:export-xdpi="96"
   inkscape:export-ydpi="96"
   xmlns:inkscape="http://www.inkscape.org/namespaces/inkscape"
   xmlns:sodipodi="http://sodipodi.sourceforge.net/DTD/sodipodi-0.dtd"
   xmlns="http://www.w3.org/2000/svg"
   xmlns:svg="http://www.w3.org/2000/svg"><sodipodi:namedview
     id="namedview1"
     pagecolor="#ffffff"
     bordercolor="#000000"
     borderopacity="0.25"
     inkscape:showpageshadow="2"
     inkscape:pageopacity="0.0"
     inkscape:pagecheckerboard="0"
     inkscape:deskcolor="#d1d1d1"
     inkscape:document-units="mm"
     inkscape:zoom="0.3701494"
     inkscape:cx="32.419342"
     inkscape:cy="871.26982"
     inkscape:window-width="1920"
     inkscape:window-height="1027"
     inkscape:window-x="-8"
     inkscape:window-y="-8"
     inkscape:window-maximized="1"
     inkscape:current-layer="layer1" /><defs
     id="defs1" /><g
     inkscape:label="Calque 1"
     inkscape:groupmode="layer"
     id="layer1"><g
       id="g10"
       transform="translate(311.33332,-76.611633)"><rect
         style="fill:#ffffff;fill-opacity:1;stroke:none;stroke-width:1.05833;stroke-dasharray:none;stroke-opacity:1"
         id="rect9"
         width="266.62094"
         height="264.47653"
         x="-309.50903"
         y="79.342964" /><a
         id="a8"
         transform="matrix(3.9352739,0,0,3.9352743,-589.73606,-302.00207)"
         style="stroke-width:1.1461;stroke-dasharray:none"><g
           id="g1"
           transform="translate(0.53610104,-4.8249095)"
           style="stroke-width:1.1461;stroke-dasharray:none"><path
             style="fill:#aa91ea;stroke-width:1.1461;stroke-dasharray:none"
             d="m 87.617907,164.30886 c 0.0055,-6.04303 0.314546,-7.85398 1.883878,-11.0374 2.728168,-5.53415 8.781796,-9.26019 15.044865,-9.26019 6.2469,0 12.32373,3.74032 15.04486,9.26019 1.56933,3.18342 1.87843,4.99437 1.88388,11.0374 l 0.005,5.09323 h -1.45521 -1.45521 v -5.23608 c 0,-5.76125 -0.21991,-7.13601 -1.56907,-9.80868 -2.82556,-5.59739 -9.77459,-8.66505 -15.97196,-7.05084 -4.902216,1.27687 -8.847422,5.18757 -10.145787,10.05705 -0.238142,0.89315 -0.353753,3.06348 -0.355873,6.68073 l -0.0031,5.35782 h -1.455209 -1.455208 z"
             id="path7" /><path
             style="fill:#fccd53;stroke-width:1.1461;stroke-dasharray:none"
             d="m 76.23623,165.06449 c 0,-9.30322 1.17056,-14.19131 4.673333,-19.51515 4.728058,-7.18614 12.347245,-11.77473 21.003967,-12.64947 5.29117,-0.53466 9.96848,0.32727 14.93624,2.75243 8.09768,3.95312 13.37984,10.74709 15.3372,19.72687 0.2908,1.33406 0.48387,3.95699 0.58916,8.00364 l 0.15661,6.01928 h -1.46514 -1.46514 l -0.12662,-6.15157 c -0.10463,-5.08393 -0.22258,-6.52619 -0.67957,-8.31015 -1.90631,-7.44164 -6.76838,-13.41957 -13.63291,-16.76172 -3.91253,-1.9049 -6.5696,-2.49496 -11.14901,-2.47589 -5.555151,0.0231 -9.222089,1.09771 -13.758329,4.03181 -3.415639,2.20929 -7.065487,6.31999 -8.795445,9.90602 -2.082713,4.31726 -2.479929,6.36522 -2.639744,13.60993 l -0.1357,6.15157 H 77.660681 76.23623 Z"
             id="path6" /><path
             style="fill:#4fc1e7;stroke-width:1.1461;stroke-dasharray:none"
             d="m 82.117098,162.98594 c 0.109511,-6.14664 0.145274,-6.51061 0.851413,-8.6651 0.876086,-2.67302 1.417687,-3.79018 2.95021,-6.08542 2.263568,-3.39012 6.160574,-6.5755 9.995587,-8.17032 3.072019,-1.27752 5.831162,-1.71546 9.682332,-1.5368 4.34258,0.20146 7.24721,1.0442 10.79146,3.131 2.15787,1.27053 6.11211,5.26909 7.43308,7.51641 2.63216,4.47798 3.21505,7.13568 3.21505,14.65897 v 5.56741 h -1.29091 -1.29092 l -0.1389,-5.75469 c -0.15045,-6.23339 -0.40374,-7.79512 -1.74353,-10.74994 -2.50897,-5.53342 -7.62859,-9.80413 -13.39511,-11.17401 -2.75902,-0.65543 -7.14395,-0.60022 -9.739137,0.12262 -7.114483,1.9816 -12.410619,7.51664 -14.214809,14.85602 -0.160976,0.65484 -0.359375,3.78023 -0.440887,6.94531 l -0.148203,5.75469 h -1.315519 -1.315519 z"
             id="path5" /><path
             style="fill:#5c9eea;stroke-width:1.1461;stroke-dasharray:none"
             d="m 84.782027,163.6474 c 0.08151,-3.16508 0.279911,-6.29047 0.440887,-6.94531 1.80419,-7.33938 7.100326,-12.87442 14.214809,-14.85602 2.595187,-0.72284 6.980117,-0.77805 9.739137,-0.12262 5.76652,1.36988 10.88614,5.64059 13.39511,11.17401 1.33979,2.95482 1.59308,4.51655 1.74353,10.74994 l 0.1389,5.75469 h -1.48721 -1.48721 l -0.005,-5.09323 c -0.005,-6.04303 -0.31455,-7.85398 -1.88388,-11.0374 -2.72113,-5.51987 -8.79796,-9.26019 -15.04486,-9.26019 -6.263069,0 -12.316697,3.72604 -15.044865,9.26019 -1.569332,3.18342 -1.878427,4.99437 -1.883878,11.0374 l -0.0046,5.09323 h -1.489745 -1.489744 z"
             id="path4" /><path
             style="fill:#9fd267;stroke-width:1.1461;stroke-dasharray:none"
             d="m 79.220832,163.25052 c 0.13914,-6.30747 0.349254,-7.8333 1.508109,-10.95169 1.389567,-3.73922 3.086283,-6.37476 5.946114,-9.23621 3.423832,-3.42578 6.880685,-5.44132 11.3893,-6.64063 3.639005,-0.968 8.876435,-1.02779 12.435415,-0.14198 7.60432,1.89268 14.12445,7.38391 17.28732,14.55931 1.62965,3.6971 1.94838,5.59095 2.08875,12.4112 l 0.12662,6.15157 h -1.48312 -1.48311 v -5.56741 c 0,-7.52329 -0.58289,-10.18099 -3.21505,-14.65897 -1.32097,-2.24732 -5.27521,-6.24588 -7.43308,-7.51641 -3.54425,-2.0868 -6.44888,-2.92954 -10.79146,-3.131 -3.85117,-0.17866 -6.610313,0.25928 -9.682332,1.5368 -3.835013,1.59482 -7.732019,4.7802 -9.995587,8.17032 -1.532523,2.29524 -2.074124,3.4124 -2.95021,6.08542 -0.706139,2.15449 -0.741902,2.51846 -0.851413,8.6651 l -0.114312,6.41615 h -1.458827 -1.458827 z"
             id="path3" /><path
             style="fill:#fa6c50;stroke-width:1.1461;stroke-dasharray:none"
             d="m 73.660477,162.58906 c 0.105227,-5.86698 0.20199,-7.12387 0.696855,-9.05169 3.562158,-13.87693 15.966262,-23.5582 30.183888,-23.5582 6.8534,0 13.10742,2.06245 18.51661,6.10642 5.95443,4.4516 9.77428,10.24316 11.67811,17.70608 0.49102,1.92479 0.59145,3.21193 0.69675,8.92969 l 0.12302,6.68073 h -1.31149 -1.31148 l -0.15661,-6.01928 c -0.19129,-7.35208 -0.71212,-10.12123 -2.73582,-14.54565 -1.65047,-3.60843 -5.09614,-7.81651 -8.56033,-10.45445 -2.15422,-1.64041 -6.91395,-3.98222 -9.525,-4.68634 -1.09141,-0.29432 -3.16928,-0.65739 -4.61749,-0.80682 -13.432016,-1.38593 -26.126317,7.22704 -29.919667,20.30023 -0.817128,2.81611 -1.181593,6.47889 -1.181593,11.87471 v 4.3376 h -1.348974 -1.348973 z"
             id="path2" /><path
             style="fill:#eb5362;stroke-width:1.1461;stroke-dasharray:none"
             d="m 70.764165,163.11823 c 0.09341,-3.70519 0.315398,-7.09817 0.540948,-8.26823 2.547103,-13.21333 12.222146,-23.47656 25.171742,-26.70205 9.777645,-2.43542 20.187165,-0.32063 28.310415,5.75153 4.52345,3.38129 8.5416,8.44285 10.64555,13.4099 2.31051,5.4547 2.98049,9.41613 2.98049,17.62282 v 4.46989 h -1.4288 -1.4288 l -0.12302,-6.68073 c -0.1053,-5.71776 -0.20573,-7.0049 -0.69675,-8.92969 -0.75712,-2.96787 -1.40733,-4.6746 -2.83103,-7.43115 -4.2209,-8.17244 -12.74265,-14.37419 -21.96009,-15.98158 -14.062664,-2.45232 -28.366739,5.30093 -33.938896,18.39593 -1.949483,4.58143 -2.207063,6.09853 -2.345447,13.81419 l -0.122194,6.81303 h -1.466271 -1.466271 z"
             id="path1" /></g><text
           xml:space="preserve"
           style="font-size:24.6514px;fill:#000000;stroke-width:1.1461;stroke-dasharray:none"
           x="76.313148"
           y="119.88316"
           id="text8"><tspan
             sodipodi:role="line"
             id="tspan8"
             x="76.313148"
             y="119.88316"
             style="font-style:normal;font-variant:normal;font-weight:900;font-stretch:normal;font-family:Arial;-inkscape-font-specification:'Arial Heavy';stroke-width:1.1461;stroke-dasharray:none">OSC</tspan></text><rect
           style="fill:none;stroke:#000000;stroke-width:1.1461;stroke-dasharray:none;stroke-opacity:1"
           id="rect8"
           width="67.701286"
           height="67.701286"
           x="71.318504"
           y="96.783295" /></a></g></g></svg>
